<svg width="22" height="21" viewBox="0 0 22 21" fill="none" xmlns="http://www.w3.org/2000/svg">
<path d="M14.5428 5.03147L14.5434 5.03087C14.7146 4.8519 14.9094 4.71859 15.1124 4.63067C15.315 4.54293 15.5264 4.5 15.7359 4.5C15.9454 4.5 16.1568 4.54293 16.3594 4.63067C16.5624 4.7186 16.7572 4.8519 16.9283 5.03087L16.9295 5.03206C17.101 5.21125 17.2448 5.43231 17.3456 5.68637C17.4464 5.94064 17.5 6.21817 17.5 6.50183C17.5 6.78548 17.4464 7.06301 17.3456 7.31728C17.2448 7.57134 17.101 7.7924 16.9295 7.97159L16.9289 7.97219L15.9147 9.03218L10.9997 14.1691L6.08478 9.03218L5.07058 7.97219C4.72168 7.60753 4.5 7.08125 4.5 6.50183C4.5 5.9224 4.72168 5.39612 5.07058 5.03147C5.41444 4.67207 5.847 4.50053 6.26361 4.50053C6.68022 4.50053 7.11277 4.67207 7.45664 5.03147L8.47084 6.09147C9.1311 6.78154 10.0447 7.17183 10.9997 7.17183C11.9548 7.17183 12.8684 6.78154 13.5286 6.09147L14.5428 5.03147Z" stroke="#1C0E54" stroke-width="7" stroke-linecap="round" stroke-linejoin="round"/>
<path d="M19.4578 2.61183C18.9691 2.10083 18.3889 1.69547 17.7503 1.41891C17.1117 1.14235 16.4272 1 15.7359 1C15.0446 1 14.3601 1.14235 13.7215 1.41891C13.0829 1.69547 12.5026 2.10083 12.0139 2.61183L10.9997 3.67183L9.98554 2.61183C8.99842 1.58013 7.6596 1.00053 6.26361 1.00053C4.86761 1.00053 3.52879 1.58013 2.54168 2.61183C1.55456 3.64352 1 5.04279 1 6.50183C1 7.96086 1.55456 9.36013 2.54168 10.3918L3.55588 11.4518L10.9997 19.2318L18.4436 11.4518L19.4578 10.3918C19.9467 9.88107 20.3346 9.27464 20.5992 8.60718C20.8638 7.93972 21 7.22431 21 6.50183C21 5.77934 20.8638 5.06393 20.5992 4.39647C20.3346 3.72901 19.9467 3.12258 19.4578 2.61183V2.61183Z" stroke="#1C0E54" stroke-width="2" stroke-linecap="round" stroke-linejoin="round"/>
</svg>
