<svg width="181" height="21" viewBox="0 0 181 21" fill="none" xmlns="http://www.w3.org/2000/svg">
<path d="M89.1037 8.71429C90.9333 8.71429 92.0593 6 92.0593 4.28571C92.0593 2.85714 91.3556 1.14286 89.9481 1.14286C88.1185 1.14286 86.9926 3.85714 86.9926 5.57143C86.9926 7 87.6963 8.71429 89.1037 8.71429ZM83.7556 8.71429C85.163 8.71429 85.8667 7 85.8667 5.57143C85.8667 3.71429 84.7407 1 82.9111 1C81.5037 1 80.8 2.71429 80.8 4.14286C80.6593 6 81.7852 8.71429 83.7556 8.71429ZM94.1704 7.28571C92.3407 7.28571 91.0741 9.85714 91.0741 11.7143C91.0741 13 91.637 14.2857 92.9037 14.2857C94.7333 14.2857 96 11.7143 96 9.85714C96 8.57143 95.2963 7.28571 94.1704 7.28571ZM81.9259 11.7143C81.9259 9.85714 80.5185 7.28571 78.8296 7.28571C77.563 7.28571 77 8.57143 77 9.85714C77 11.7143 78.4074 14.2857 80.0963 14.2857C81.363 14.2857 81.9259 13 81.9259 11.7143ZM86.4296 11.4286C83.6148 11.4286 79.8148 16 79.8148 19.1429C79.8148 20.5714 80.8 21 81.9259 21C83.6148 21 84.8815 19.8571 86.4296 19.8571C87.837 19.8571 89.1037 21 90.6519 21C91.7778 21 93.0444 20.7143 93.0444 19.1429C93.0444 16 89.2444 11.4286 86.4296 11.4286Z" fill="#4E4E4E"/>
<path d="M124.3 1.00011C122.11 0.98865 120.006 1.86207 118.449 3.42853C116.893 4.995 116.012 7.12603 116 9.35268C116 15.2539 122.519 20.6949 124.3 20.6949C126.081 20.6949 132.6 15.2543 132.6 9.35268C132.588 7.12587 131.707 4.99488 130.151 3.42853C128.594 1.86207 126.49 0.988656 124.3 1.00011H124.3ZM122.225 2.40689C122.365 2.40689 122.491 2.49262 122.545 2.62403C122.598 2.75544 122.569 2.90664 122.47 3.00728C122.371 3.10793 122.222 3.13791 122.093 3.08343C121.964 3.02911 121.879 2.90083 121.879 2.75859C121.879 2.56437 122.034 2.40689 122.225 2.40689ZM117.038 9.5674C117.036 8.19643 117.402 6.85071 118.094 5.67428C118.787 4.49797 119.781 3.53521 120.97 2.88881C121.14 2.79853 121.35 2.86542 121.438 3.03829C121.527 3.21115 121.461 3.42452 121.291 3.51478C120.214 4.10024 119.313 4.97273 118.685 6.03899C118.058 7.10521 117.727 8.32484 117.729 9.56739C117.729 9.76176 117.574 9.91909 117.383 9.91909C117.192 9.91909 117.038 9.76176 117.038 9.56739L117.038 9.5674ZM128.824 8.32232V8.32248C128.999 8.50021 129.067 8.75942 129.003 9.00231C128.939 9.24505 128.752 9.43488 128.514 9.49987C128.275 9.56503 128.02 9.49547 127.845 9.31775L126.624 8.07628L122.958 11.8042L124.179 13.0457C124.354 13.2234 124.422 13.4827 124.358 13.7255C124.294 13.9684 124.108 14.1581 123.869 14.2231C123.63 14.2883 123.375 14.2189 123.201 14.041L122.886 13.7245H122.886C122.845 13.884 122.749 14.0236 122.617 14.1185C122.484 14.2135 122.323 14.2578 122.162 14.2437C122 14.2295 121.849 14.1576 121.734 14.041L121.247 13.5452L121.122 13.6682H121.122C120.947 13.846 120.692 13.9154 120.454 13.8504C120.215 13.7852 120.028 13.5955 119.964 13.3527C119.9 13.1098 119.969 12.8507 120.143 12.673L120.268 12.5499L119.777 12.0504H119.777C119.662 11.9339 119.591 11.7799 119.577 11.6157C119.564 11.4515 119.607 11.2874 119.7 11.1527C119.794 11.018 119.931 10.9211 120.088 10.8793L119.777 10.5593V10.5592C119.602 10.3815 119.534 10.1222 119.598 9.87935C119.662 9.63661 119.848 9.44678 120.087 9.38179C120.326 9.31663 120.581 9.38619 120.755 9.56392L121.98 10.809L125.646 7.08103L124.421 5.83595C124.246 5.65822 124.178 5.399 124.242 5.15611C124.306 4.91322 124.493 4.72355 124.731 4.65855C124.97 4.5934 125.225 4.66279 125.4 4.84068L125.715 5.15721H125.715C125.756 4.99768 125.851 4.85811 125.984 4.76312C126.116 4.66813 126.277 4.62386 126.439 4.63798C126.6 4.65211 126.752 4.72402 126.866 4.84068L127.357 5.34013L127.478 5.21358V5.21342C127.653 5.03569 127.908 4.9663 128.147 5.0313C128.386 5.09646 128.572 5.28612 128.636 5.52902C128.7 5.77191 128.632 6.03096 128.457 6.20869L128.336 6.33524L128.824 6.83107V6.83123C128.938 6.94772 129.009 7.10175 129.023 7.26596C129.037 7.43019 128.993 7.59426 128.9 7.72899C128.807 7.86371 128.669 7.96058 128.512 8.00234L128.824 8.32232Z" fill="#4E4E4E"/>
<g clip-path="url(#clip0_202_2)">
<path d="M166.6 20.5591C171.801 20.5591 176.017 16.2794 176.017 11.0002C176.017 5.72104 171.801 1.44141 166.6 1.44141C161.399 1.44141 157.183 5.72104 157.183 11.0002C157.183 16.2794 161.399 20.5591 166.6 20.5591Z" fill="#4E4E4E"/>
<path d="M180.503 12.5804C180.503 15.4652 178.438 17.3725 175.89 17.3725H157.31C154.763 17.3725 152.697 15.2275 152.697 12.5804V9.4196C152.697 6.77244 154.763 4.62744 157.31 4.62744H175.89C178.438 4.62744 180.503 6.77244 180.503 9.4196V12.5804Z" fill="#4E4E4E"/>
<path d="M162.176 7.81362H160.447L159.919 11.5473L159.262 7.83146H157.709L157.035 11.5473L156.523 7.83146H154.761L156.234 14.1862H157.788L158.461 10.2696L159.149 14.1862H160.719L162.176 7.81362ZM163.44 9.72539H165.025V14.1862H163.44V9.72539ZM165.02 8.28965C165.024 8.39694 165.007 8.50399 164.969 8.60437C164.932 8.70476 164.874 8.79642 164.8 8.87385C164.727 8.95127 164.638 9.01287 164.54 9.05495C164.442 9.09703 164.337 9.11872 164.23 9.11872C164.124 9.11872 164.018 9.09703 163.92 9.05495C163.823 9.01287 163.734 8.95127 163.66 8.87385C163.586 8.79642 163.529 8.70476 163.491 8.60437C163.453 8.50399 163.436 8.39694 163.44 8.28965C163.44 7.84612 163.794 7.48798 164.23 7.48798C164.666 7.48798 165.02 7.84612 165.02 8.28965ZM175.802 5.90186H170.76C170.76 5.90186 167.232 6.02485 167.232 9.67058V12.4337C167.232 12.4337 167.296 14.3079 165.336 16.0979H175.943C175.943 16.0979 179.239 16.0979 179.239 12.5593V9.45009C179.239 9.45009 179.095 5.90186 175.802 5.90186ZM175.03 9.32328H171.458V10.7482H174.678V12.2419H171.458V14.1862H169.76V7.81362H175.03V9.32328ZM176.869 7.48798C177.305 7.48798 177.659 7.84612 177.659 8.28965C177.659 8.73127 177.305 9.08813 176.869 9.08813C176.434 9.08813 176.079 8.73127 176.079 8.28965C176.079 7.84612 176.434 7.48798 176.869 7.48798ZM177.664 14.1862H176.079V9.72539H177.664V14.1862Z" fill="white"/>
</g>
<path d="M18.0793 20.4093L18.0791 10.1062H0.948045V20.4093H0.294254C0.130762 20.4093 0 20.5406 0 20.7047C0 20.8688 0.130762 21 0.294254 21H18.7007C18.8642 21 18.9949 20.8688 18.9949 20.7047C19.0277 20.5406 18.8968 20.4093 18.7334 20.4093H18.0793ZM13.4367 12.6654C13.4367 12.5013 13.5675 12.3701 13.7309 12.3701H16.5753C16.7388 12.3701 16.8695 12.5013 16.8695 12.6654V15.8155C16.8695 15.9795 16.7388 16.1108 16.5753 16.1108H13.7309C13.5675 16.1108 13.4367 15.9795 13.4367 15.8155V12.6654ZM10.102 13.0263H11.6386C11.8021 13.0263 11.9329 13.1575 11.9329 13.3216V20.3762H9.8078V13.3543C9.8078 13.1903 9.93856 13.0262 10.1021 13.0262L10.102 13.0263ZM2.12482 12.6654C2.12482 12.5013 2.25559 12.3701 2.41908 12.3701H5.26341C5.4269 12.3701 5.55766 12.5013 5.55766 12.6654V15.8155C5.55766 15.9795 5.4269 16.1108 5.26341 16.1108H2.41908C2.25559 16.1108 2.12482 15.9795 2.12482 15.8155V12.6654ZM7.06149 13.3544C7.06149 13.1904 7.19225 13.0591 7.35574 13.0591H8.89233C9.05582 13.0591 9.18658 13.1904 9.18658 13.3544V20.4091H7.0615L7.06149 13.3544Z" fill="#4E4E4E"/>
<path d="M8.53266 17.2267C8.40189 17.0626 8.43462 16.8985 8.56539 16.7673C8.69615 16.6689 8.85964 16.7016 8.92494 16.8001C9.02298 16.8985 9.05571 17.0955 8.92494 17.2267C8.85964 17.3253 8.66342 17.3581 8.53266 17.2267Z" fill="#4E4E4E"/>
<path d="M10.0694 17.2267C9.93869 17.0955 9.97141 16.9314 10.0694 16.8001C10.2002 16.6689 10.3637 16.6689 10.4945 16.8001C10.5925 16.8985 10.6252 17.0626 10.4945 17.2267C10.3637 17.3253 10.2002 17.3581 10.0694 17.2267Z" fill="#4E4E4E"/>
<path d="M8.63095 2.36252L9.41554 3.44528C9.44827 3.44528 9.481 3.41243 9.51357 3.41243C9.5463 3.41243 9.57903 3.41243 9.6116 3.44528L10.3962 2.39519L8.63095 2.36252Z" fill="#4E4E4E"/>
<path d="M18.439 7.54697H9.80801V6.39852C11.4426 6.23443 12.6851 4.88919 12.6851 3.21559C12.6851 1.44379 11.2466 0 9.4812 0C7.71584 0 6.2773 1.44379 6.2773 3.21559C6.2773 4.88903 7.55233 6.26712 9.15438 6.39852V7.57984H0.588638C0.425146 7.57984 0.294384 7.71108 0.294384 7.87517V9.22039C0.294384 9.38448 0.425146 9.51572 0.588638 9.51572H18.4065C18.57 9.51572 18.7008 9.38448 18.7008 9.22039V7.87517C18.7335 7.67823 18.6028 7.54699 18.4393 7.54699L18.439 7.54697ZM8.89238 5.2172C8.72889 5.2172 8.59813 5.08596 8.59813 4.92187C8.59813 4.75778 8.72889 4.62654 8.89238 4.62654H9.21937V4.16714L7.81358 2.23123C7.74812 2.13284 7.74812 2.03429 7.78085 1.9359C7.84631 1.83751 7.94434 1.77181 8.04237 1.77181H10.952C11.05 1.77181 11.1808 1.83751 11.2135 1.9359C11.279 2.03429 11.2463 2.16553 11.1808 2.23123L9.775 4.13443V4.59383H10.102C10.2655 4.59383 10.3962 4.72507 10.3962 4.88916C10.3962 5.05325 10.2655 5.18449 10.102 5.18449L8.89238 5.2172Z" fill="#4E4E4E"/>
<path d="M56.64 1H39.36C39.1614 1 39 1.16601 39 1.37037V3.96296H57V1.37037C57 1.16601 56.8391 1 56.64 1ZM41.52 3.22222H40.8C40.6014 3.22222 40.44 3.05622 40.44 2.85185C40.44 2.64749 40.6014 2.48148 40.8 2.48148H41.52C41.7186 2.48148 41.88 2.64749 41.88 2.85185C41.88 3.05622 41.7186 3.22222 41.52 3.22222ZM43.68 3.22222H42.96C42.7614 3.22222 42.6 3.05622 42.6 2.85185C42.6 2.64749 42.7614 2.48148 42.96 2.48148H43.68C43.8786 2.48148 44.04 2.64749 44.04 2.85185C44.04 3.05622 43.8786 3.22222 43.68 3.22222ZM50.88 3.22222H50.16C49.9609 3.22222 49.8 3.05622 49.8 2.85185C49.8 2.64749 49.9609 2.48148 50.16 2.48148H50.88C51.0791 2.48148 51.24 2.64749 51.24 2.85185C51.24 3.05622 51.0791 3.22222 50.88 3.22222ZM53.04 3.22222H52.32C52.1209 3.22222 51.96 3.05622 51.96 2.85185C51.96 2.64749 52.1209 2.48148 52.32 2.48148H53.04C53.2391 2.48148 53.4 2.64749 53.4 2.85185C53.4 3.05622 53.2391 3.22222 53.04 3.22222ZM55.2 3.22222H54.48C54.2809 3.22222 54.12 3.05622 54.12 2.85185C54.12 2.64749 54.2809 2.48148 54.48 2.48148H55.2C55.3991 2.48148 55.56 2.64749 55.56 2.85185C55.56 3.05622 55.3991 3.22222 55.2 3.22222Z" fill="#4E4E4E"/>
<path d="M46.0408 13.3213C46.9098 13.3213 47.3357 13.1109 47.7868 12.8883C48.267 12.6508 48.8113 12.3823 49.8443 12.3823C50.8772 12.3823 51.4214 12.6512 51.9017 12.8883C52.2948 13.082 52.6693 13.2664 53.3334 13.3109C53.3729 13.0395 53.3999 12.7639 53.3999 12.4813C53.3999 9.418 50.9775 6.92577 47.9999 6.92577C45.0511 6.92577 42.6505 9.37136 42.6045 12.3946C43.4069 12.449 43.8763 12.6809 44.2965 12.8886C44.7468 13.1112 45.1727 13.3215 46.041 13.3215L46.0408 13.3213Z" fill="#4E4E4E"/>
<path d="M48 18.037C50.452 18.037 52.5228 16.3462 53.1799 14.0392C52.4416 13.9722 51.9912 13.754 51.5901 13.5559C51.139 13.3333 50.7128 13.1229 49.8441 13.1229C48.9751 13.1229 48.5487 13.3332 48.098 13.5559C47.6178 13.7933 47.0732 14.0618 46.0406 14.0618C45.0085 14.0618 44.4644 13.793 43.9843 13.5559C43.6103 13.3707 43.2492 13.1963 42.6418 13.1422C42.9605 15.8948 45.2398 18.037 47.9998 18.037L48 18.037Z" fill="#4E4E4E"/>
<path d="M39 19.8889C39 20.0937 39.1614 20.2593 39.36 20.2593H41.52C41.3214 20.2593 41.16 20.4248 41.16 20.6296C41.16 20.8345 41.3214 21 41.52 21H42.96C43.1586 21 43.32 20.8345 43.32 20.6296C43.32 20.4248 43.1586 20.2593 42.96 20.2593H53.04C52.8409 20.2593 52.68 20.4248 52.68 20.6296C52.68 20.8345 52.8409 21 53.04 21H54.48C54.6791 21 54.84 20.8345 54.84 20.6296C54.84 20.4248 54.6791 20.2593 54.48 20.2593H56.64C56.8391 20.2593 57 20.0937 57 19.8889V4.7037H39V19.8889ZM48 6.18518C51.3747 6.18518 54.12 9.00961 54.12 12.4815C54.12 15.9534 51.3747 18.7778 48 18.7778C44.6253 18.7778 41.88 15.9534 41.88 12.4815C41.88 9.00961 44.6253 6.18518 48 6.18518Z" fill="#4E4E4E"/>
<defs>
<clipPath id="clip0_202_2">
<rect width="28" height="20" fill="white" transform="translate(152.6 1)"/>
</clipPath>
</defs>
</svg>
