<svg width="20" height="20" viewBox="0 0 20 20" fill="none" xmlns="http://www.w3.org/2000/svg">
<path d="M10.015 0C4.484 0 0 4.473 0 9.99C0 14.222 2.638 17.837 6.364 19.29C6.276 18.5 6.198 17.288 6.398 16.425C6.581 15.645 7.573 11.461 7.573 11.461C7.573 11.461 7.273 10.861 7.273 9.977C7.273 8.591 8.081 7.551 9.084 7.551C9.939 7.551 10.352 8.191 10.352 8.957C10.352 9.815 9.807 11.097 9.523 12.284C9.285 13.278 10.025 14.088 11.006 14.088C12.784 14.088 14.154 12.218 14.154 9.516C14.154 7.132 12.431 5.458 9.97 5.458C7.122 5.458 5.452 7.593 5.452 9.791C5.452 10.651 5.781 11.577 6.194 12.075C6.277 12.175 6.288 12.263 6.265 12.363C6.19 12.675 6.021 13.362 5.986 13.498C5.942 13.686 5.843 13.724 5.651 13.636C4.402 13.061 3.619 11.238 3.619 9.764C3.619 6.618 5.915 3.721 10.235 3.721C13.709 3.721 16.41 6.193 16.41 9.49C16.41 12.936 14.232 15.708 11.203 15.708C10.189 15.708 9.237 15.184 8.899 14.559L8.274 16.933C8.049 17.803 7.434 18.893 7.022 19.554C7.98286 19.8499 8.98261 20.0002 9.988 20C15.508 20 20 15.53 20 10.01C20 4.493 15.507 0.023 9.988 0.023L10.015 0Z" fill="white"/>
</svg>
