<svg width="22" height="21" viewBox="0 0 22 21" fill="none" xmlns="http://www.w3.org/2000/svg">
<path d="M19.4578 2.61183C18.9691 2.10083 18.3889 1.69547 17.7503 1.41891C17.1117 1.14235 16.4272 1 15.7359 1C15.0446 1 14.3601 1.14235 13.7215 1.41891C13.0829 1.69547 12.5026 2.10083 12.0139 2.61183L10.9997 3.67183L9.98554 2.61183C8.99842 1.58013 7.6596 1.00053 6.26361 1.00053C4.86761 1.00053 3.52879 1.58013 2.54168 2.61183C1.55456 3.64352 1 5.04279 1 6.50183C1 7.96086 1.55456 9.36013 2.54168 10.3918L3.55588 11.4518L10.9997 19.2318L18.4436 11.4518L19.4578 10.3918C19.9467 9.88107 20.3346 9.27464 20.5992 8.60718C20.8638 7.93972 21 7.22431 21 6.50183C21 5.77934 20.8638 5.06393 20.5992 4.39647C20.3346 3.72901 19.9467 3.12258 19.4578 2.61183V2.61183Z" stroke="#1C0E54" stroke-width="2" stroke-linecap="round" stroke-linejoin="round"/>
</svg>
