<svg width="27" height="21" viewBox="0 0 27 21" fill="none" xmlns="http://www.w3.org/2000/svg">
<path d="M27 2.48828C25.9872 2.91613 24.9156 3.19801 23.8191 3.325C24.9714 2.66896 25.8381 1.62672 26.2564 0.393758C25.1669 1.01314 23.9769 1.44773 22.7374 1.67891C22.2154 1.14709 21.5877 0.724017 20.8923 0.4354C20.197 0.146782 19.4485 -0.00134932 18.6924 9.26098e-06C15.6313 9.26098e-06 13.1541 2.37344 13.1541 5.29921C13.1519 5.70618 13.1999 6.11193 13.2969 6.5078C11.1019 6.40776 8.95248 5.86336 6.98624 4.90943C5.02 3.9555 3.28021 2.61306 1.87819 0.967975C1.38632 1.77413 1.1262 2.69393 1.125 3.63125C1.125 5.46874 2.11106 7.09296 3.6 8.04452C2.71785 8.02416 1.85377 7.79717 1.08113 7.3828V7.44842C1.08113 10.0187 2.99362 12.157 5.52487 12.6437C5.04888 12.7671 4.55837 12.8296 4.06575 12.8297C3.7162 12.8303 3.36744 12.7973 3.02456 12.7312C3.72825 14.8367 5.77631 16.3679 8.20238 16.4117C6.23103 17.8887 3.81072 18.6871 1.32187 18.6812C0.880098 18.6806 0.438731 18.655 0 18.6046C2.53191 20.1765 5.47506 21.0079 8.47913 20.9999C18.6806 20.9999 24.2539 12.9226 24.2539 5.91718C24.2539 5.68749 24.2477 5.4578 24.2364 5.23359C25.3182 4.4855 26.254 3.55584 27 2.48828Z" fill="white"/>
</svg>
